<svg width="872" height="872" viewBox="0 0 872 872" fill="none" xmlns="http://www.w3.org/2000/svg">
<g filter="url(#filter0_i_2_47)">
<path d="M330.027 335.267C339.825 335.267 349.427 332.64 357.834 327.608C394.57 305.619 449.643 272.1 501.267 240.317C548.742 215.835 571.734 234.356 571.734 265.864V317.558C571.734 327.339 579.704 335.136 589.383 336.545C623.835 341.561 654.865 361.078 674.258 390.66L792.076 577.536C870.845 697.606 790.356 813.845 671.25 813.845H221.103C137.224 813.845 66.5445 752.843 66.5445 677.595C66.5445 642.468 76.9762 615.643 94.2203 584.349L215.99 391.635C238.547 356.506 277.426 335.267 319.174 335.267H330.027Z" fill="url(#paint0_radial_2_47)"/>
<path d="M330.027 335.267C339.825 335.267 349.427 332.64 357.834 327.608C394.57 305.619 449.643 272.1 501.267 240.317C548.742 215.835 571.734 234.356 571.734 265.864V317.558C571.734 327.339 579.704 335.136 589.383 336.545C623.835 341.561 654.865 361.078 674.258 390.66L792.076 577.536C870.845 697.606 790.356 813.845 671.25 813.845H221.103C137.224 813.845 66.5445 752.843 66.5445 677.595C66.5445 642.468 76.9762 615.643 94.2203 584.349L215.99 391.635C238.547 356.506 277.426 335.267 319.174 335.267H330.027Z" fill="url(#paint1_radial_2_47)"/>
<path d="M330.027 335.267C339.825 335.267 349.427 332.64 357.834 327.608C394.57 305.619 449.643 272.1 501.267 240.317C548.742 215.835 571.734 234.356 571.734 265.864V317.558C571.734 327.339 579.704 335.136 589.383 336.545C623.835 341.561 654.865 361.078 674.258 390.66L792.076 577.536C870.845 697.606 790.356 813.845 671.25 813.845H221.103C137.224 813.845 66.5445 752.843 66.5445 677.595C66.5445 642.468 76.9762 615.643 94.2203 584.349L215.99 391.635C238.547 356.506 277.426 335.267 319.174 335.267H330.027Z" fill="url(#paint2_radial_2_47)"/>
<path d="M330.027 335.267C339.825 335.267 349.427 332.64 357.834 327.608C394.57 305.619 449.643 272.1 501.267 240.317C548.742 215.835 571.734 234.356 571.734 265.864V317.558C571.734 327.339 579.704 335.136 589.383 336.545C623.835 341.561 654.865 361.078 674.258 390.66L792.076 577.536C870.845 697.606 790.356 813.845 671.25 813.845H221.103C137.224 813.845 66.5445 752.843 66.5445 677.595C66.5445 642.468 76.9762 615.643 94.2203 584.349L215.99 391.635C238.547 356.506 277.426 335.267 319.174 335.267H330.027Z" fill="url(#paint3_radial_2_47)"/>
<path d="M330.027 335.267C339.825 335.267 349.427 332.64 357.834 327.608C394.57 305.619 449.643 272.1 501.267 240.317C548.742 215.835 571.734 234.356 571.734 265.864V317.558C571.734 327.339 579.704 335.136 589.383 336.545C623.835 341.561 654.865 361.078 674.258 390.66L792.076 577.536C870.845 697.606 790.356 813.845 671.25 813.845H221.103C137.224 813.845 66.5445 752.843 66.5445 677.595C66.5445 642.468 76.9762 615.643 94.2203 584.349L215.99 391.635C238.547 356.506 277.426 335.267 319.174 335.267H330.027Z" fill="url(#paint4_radial_2_47)"/>
<path d="M330.027 335.267C339.825 335.267 349.427 332.64 357.834 327.608C394.57 305.619 449.643 272.1 501.267 240.317C548.742 215.835 571.734 234.356 571.734 265.864V317.558C571.734 327.339 579.704 335.136 589.383 336.545C623.835 341.561 654.865 361.078 674.258 390.66L792.076 577.536C870.845 697.606 790.356 813.845 671.25 813.845H221.103C137.224 813.845 66.5445 752.843 66.5445 677.595C66.5445 642.468 76.9762 615.643 94.2203 584.349L215.99 391.635C238.547 356.506 277.426 335.267 319.174 335.267H330.027Z" fill="url(#paint5_radial_2_47)"/>
<path d="M330.027 335.267C339.825 335.267 349.427 332.64 357.834 327.608C394.57 305.619 449.643 272.1 501.267 240.317C548.742 215.835 571.734 234.356 571.734 265.864V317.558C571.734 327.339 579.704 335.136 589.383 336.545C623.835 341.561 654.865 361.078 674.258 390.66L792.076 577.536C870.845 697.606 790.356 813.845 671.25 813.845H221.103C137.224 813.845 66.5445 752.843 66.5445 677.595C66.5445 642.468 76.9762 615.643 94.2203 584.349L215.99 391.635C238.547 356.506 277.426 335.267 319.174 335.267H330.027Z" fill="url(#paint6_radial_2_47)"/>
<path d="M330.027 335.267C339.825 335.267 349.427 332.64 357.834 327.608C394.57 305.619 449.643 272.1 501.267 240.317C548.742 215.835 571.734 234.356 571.734 265.864V317.558C571.734 327.339 579.704 335.136 589.383 336.545C623.835 341.561 654.865 361.078 674.258 390.66L792.076 577.536C870.845 697.606 790.356 813.845 671.25 813.845H221.103C137.224 813.845 66.5445 752.843 66.5445 677.595C66.5445 642.468 76.9762 615.643 94.2203 584.349L215.99 391.635C238.547 356.506 277.426 335.267 319.174 335.267H330.027Z" fill="url(#paint7_radial_2_47)"/>
</g>
<path d="M330.027 335.267C339.825 335.267 349.427 332.64 357.834 327.608C394.57 305.619 449.643 272.1 501.267 240.317C548.742 215.835 571.734 234.356 571.734 265.864V317.558C571.734 327.339 579.704 335.136 589.383 336.545C623.835 341.561 654.865 361.078 674.258 390.66L792.076 577.536C870.845 697.606 790.356 813.845 671.25 813.845H221.103C137.224 813.845 66.5445 752.843 66.5445 677.595C66.5445 642.468 76.9762 615.643 94.2203 584.349L215.99 391.635C238.547 356.506 277.426 335.267 319.174 335.267H330.027Z" fill="url(#paint8_radial_2_47)"/>
<g filter="url(#filter1_i_2_47)">
<circle cx="95.5844" cy="95.5844" r="95.5844" transform="matrix(-1 0 0 1 305.827 428.52)" fill="url(#paint9_radial_2_47)"/>
<circle cx="95.5844" cy="95.5844" r="95.5844" transform="matrix(-1 0 0 1 305.827 428.52)" fill="url(#paint10_radial_2_47)"/>
</g>
<ellipse cx="62.3805" cy="65.1481" rx="62.3805" ry="65.1481" transform="matrix(-1 0 0 1 291.57 458.956)" fill="url(#paint11_radial_2_47)"/>
<ellipse cx="62.3805" cy="65.1481" rx="62.3805" ry="65.1481" transform="matrix(-1 0 0 1 291.57 458.956)" fill="url(#paint12_radial_2_47)"/>
<circle cx="678.602" cy="524.104" r="95.5844" fill="url(#paint13_radial_2_47)"/>
<circle cx="678.602" cy="524.104" r="95.5844" fill="url(#paint14_radial_2_47)"/>
<ellipse cx="659.655" cy="524.104" rx="62.3805" ry="65.1481" fill="url(#paint15_radial_2_47)"/>
<ellipse cx="659.655" cy="524.104" rx="62.3805" ry="65.1481" fill="url(#paint16_radial_2_47)"/>
<g filter="url(#filter2_f_2_47)">
<path d="M354.866 610.953C346.076 610.953 338.719 617.943 339.729 626.674C345.743 678.685 390.839 720.599 444.639 720.599C498.439 720.599 543.535 678.685 549.549 626.674C550.558 617.943 543.201 610.953 534.411 610.953H354.866Z" stroke="url(#paint17_linear_2_47)" stroke-width="0.5"/>
</g>
<g filter="url(#filter3_f_2_47)">
<path d="M354.866 610.953C346.076 610.953 338.719 617.943 339.729 626.674C345.743 678.685 390.839 720.599 444.639 720.599C498.439 720.599 543.535 678.685 549.549 626.674C550.558 617.943 543.201 610.953 534.411 610.953H354.866Z" stroke="url(#paint18_linear_2_47)" stroke-width="0.5"/>
</g>
<path d="M354.866 610.953C346.076 610.953 338.719 617.943 339.729 626.674C345.743 678.685 390.839 720.599 444.639 720.599C498.439 720.599 543.535 678.685 549.549 626.674C550.558 617.943 543.201 610.953 534.411 610.953H354.866Z" fill="url(#paint19_linear_2_47)"/>
<defs>
<filter id="filter0_i_2_47" x="66.5445" y="229.041" width="757.394" height="584.803" filterUnits="userSpaceOnUse" color-interpolation-filters="sRGB">
<feFlood flood-opacity="0" result="BackgroundImageFix"/>
<feBlend mode="normal" in="SourceGraphic" in2="BackgroundImageFix" result="shape"/>
<feColorMatrix in="SourceAlpha" type="matrix" values="0 0 0 0 0 0 0 0 0 0 0 0 0 0 0 0 0 0 127 0" result="hardAlpha"/>
<feOffset dx="0.5"/>
<feGaussianBlur stdDeviation="1"/>
<feComposite in2="hardAlpha" operator="arithmetic" k2="-1" k3="1"/>
<feColorMatrix type="matrix" values="0 0 0 0 0.313726 0 0 0 0 0.14902 0 0 0 0 0.160784 0 0 0 1 0"/>
<feBlend mode="normal" in2="shape" result="effect1_innerShadow_2_47"/>
</filter>
<filter id="filter1_i_2_47" x="114.658" y="428.52" width="191.319" height="191.169" filterUnits="userSpaceOnUse" color-interpolation-filters="sRGB">
<feFlood flood-opacity="0" result="BackgroundImageFix"/>
<feBlend mode="normal" in="SourceGraphic" in2="BackgroundImageFix" result="shape"/>
<feColorMatrix in="SourceAlpha" type="matrix" values="0 0 0 0 0 0 0 0 0 0 0 0 0 0 0 0 0 0 127 0" result="hardAlpha"/>
<feOffset dx="0.15"/>
<feGaussianBlur stdDeviation="0.25"/>
<feComposite in2="hardAlpha" operator="arithmetic" k2="-1" k3="1"/>
<feColorMatrix type="matrix" values="0 0 0 0 0.686275 0 0 0 0 0.67451 0 0 0 0 0.698039 0 0 0 1 0"/>
<feBlend mode="normal" in2="shape" result="effect1_innerShadow_2_47"/>
</filter>
<filter id="filter2_f_2_47" x="338.886" y="610.203" width="211.506" height="111.146" filterUnits="userSpaceOnUse" color-interpolation-filters="sRGB">
<feFlood flood-opacity="0" result="BackgroundImageFix"/>
<feBlend mode="normal" in="SourceGraphic" in2="BackgroundImageFix" result="shape"/>
<feGaussianBlur stdDeviation="0.25" result="effect1_foregroundBlur_2_47"/>
</filter>
<filter id="filter3_f_2_47" x="339.136" y="610.453" width="211.006" height="110.646" filterUnits="userSpaceOnUse" color-interpolation-filters="sRGB">
<feFlood flood-opacity="0" result="BackgroundImageFix"/>
<feBlend mode="normal" in="SourceGraphic" in2="BackgroundImageFix" result="shape"/>
<feGaussianBlur stdDeviation="0.125" result="effect1_foregroundBlur_2_47"/>
</filter>
<radialGradient id="paint0_radial_2_47" cx="0" cy="0" r="1" gradientUnits="userSpaceOnUse" gradientTransform="translate(623.466 427.235) rotate(129.331) scale(499.817 515.795)">
<stop stop-color="#A95D4B"/>
<stop offset="0.808038" stop-color="#693039"/>
</radialGradient>
<radialGradient id="paint1_radial_2_47" cx="0" cy="0" r="1" gradientUnits="userSpaceOnUse" gradientTransform="translate(660.935 639.274) rotate(180) scale(210.336 73.2344)">
<stop stop-color="#875050"/>
<stop offset="1" stop-color="#875050" stop-opacity="0"/>
</radialGradient>
<radialGradient id="paint2_radial_2_47" cx="0" cy="0" r="1" gradientUnits="userSpaceOnUse" gradientTransform="translate(335.638 813.845) scale(471.766 182.234)">
<stop stop-color="#6D2752"/>
<stop offset="1" stop-color="#6D2752" stop-opacity="0"/>
</radialGradient>
<radialGradient id="paint3_radial_2_47" cx="0" cy="0" r="1" gradientUnits="userSpaceOnUse" gradientTransform="translate(182.414 570.881) rotate(153.435) scale(111.946 75.4479)">
<stop offset="0.307426" stop-color="#502928"/>
<stop offset="1" stop-color="#502928" stop-opacity="0"/>
</radialGradient>
<radialGradient id="paint4_radial_2_47" cx="0" cy="0" r="1" gradientUnits="userSpaceOnUse" gradientTransform="translate(573.091 229.041) rotate(121.001) scale(210.025 81.3831)">
<stop offset="0.182311" stop-color="#BB6C5A"/>
<stop offset="1" stop-color="#8D4A43" stop-opacity="0"/>
</radialGradient>
<radialGradient id="paint5_radial_2_47" cx="0" cy="0" r="1" gradientUnits="userSpaceOnUse" gradientTransform="translate(481.009 336.653) scale(125.16 12.516)">
<stop stop-color="#7B4638"/>
<stop offset="1" stop-color="#8D4A43" stop-opacity="0"/>
</radialGradient>
<radialGradient id="paint6_radial_2_47" cx="0" cy="0" r="1" gradientUnits="userSpaceOnUse" gradientTransform="translate(337.97 333.077) scale(96.5519 11.622)">
<stop stop-color="#915E52"/>
<stop offset="1" stop-color="#915E52" stop-opacity="0"/>
</radialGradient>
<radialGradient id="paint7_radial_2_47" cx="0" cy="0" r="1" gradientUnits="userSpaceOnUse" gradientTransform="translate(637.943 566.892) rotate(-137.268) scale(121.729 92.8782)">
<stop offset="0.492825" stop-color="#572725"/>
<stop offset="1" stop-color="#6F3735" stop-opacity="0"/>
</radialGradient>
<radialGradient id="paint8_radial_2_47" cx="0" cy="0" r="1" gradientUnits="userSpaceOnUse" gradientTransform="translate(713.732 354.001) rotate(147.619) scale(165.37 203.853)">
<stop stop-color="#AA6452"/>
<stop offset="1" stop-color="#AA6452" stop-opacity="0"/>
</radialGradient>
<radialGradient id="paint9_radial_2_47" cx="0" cy="0" r="1" gradientUnits="userSpaceOnUse" gradientTransform="translate(45.1262 48.1062) rotate(47.2395) scale(107.866 118.892)">
<stop offset="0.296682" stop-color="white"/>
<stop offset="1" stop-color="#B9B1BE"/>
</radialGradient>
<radialGradient id="paint10_radial_2_47" cx="0" cy="0" r="1" gradientUnits="userSpaceOnUse" gradientTransform="translate(90.259 126.45) rotate(62.4801) scale(114.265 123.787)">
<stop offset="0.239583" stop-color="#C39EE2"/>
<stop offset="1" stop-color="#C39EE2" stop-opacity="0"/>
</radialGradient>
<radialGradient id="paint11_radial_2_47" cx="0" cy="0" r="1" gradientUnits="userSpaceOnUse" gradientTransform="translate(69.1894 105.381) rotate(-90) scale(96.2265 84.3047)">
<stop stop-color="#332169"/>
<stop offset="1" stop-color="#232854"/>
</radialGradient>
<radialGradient id="paint12_radial_2_47" cx="0" cy="0" r="1" gradientUnits="userSpaceOnUse" gradientTransform="translate(23.2051 29.5918) rotate(-142.431) scale(69.8333 39.9701)">
<stop offset="0.255762" stop-color="#707289"/>
<stop offset="1" stop-color="#707289" stop-opacity="0"/>
</radialGradient>
<radialGradient id="paint13_radial_2_47" cx="0" cy="0" r="1" gradientUnits="userSpaceOnUse" gradientTransform="translate(717.138 497.915) rotate(139.49) scale(115.364 127.156)">
<stop offset="0.296682" stop-color="white"/>
<stop offset="1" stop-color="#B9B1BE"/>
</radialGradient>
<radialGradient id="paint14_radial_2_47" cx="0" cy="0" r="1" gradientUnits="userSpaceOnUse" gradientTransform="translate(647.31 574.556) rotate(90) scale(81.75 88.5625)">
<stop offset="0.239583" stop-color="#C39EE2"/>
<stop offset="1" stop-color="#C39EE2" stop-opacity="0"/>
</radialGradient>
<radialGradient id="paint15_radial_2_47" cx="0" cy="0" r="1" gradientUnits="userSpaceOnUse" gradientTransform="translate(694.146 566.892) rotate(-116.012) scale(78.6466 111.948)">
<stop stop-color="#362469"/>
<stop offset="1" stop-color="#23274E"/>
</radialGradient>
<radialGradient id="paint16_radial_2_47" cx="0" cy="0" r="1" gradientUnits="userSpaceOnUse" gradientTransform="translate(719.267 506.005) rotate(154.217) scale(41.6112 41.6557)">
<stop offset="0.116655" stop-color="#6E7087"/>
<stop offset="1" stop-color="#6E7087" stop-opacity="0"/>
</radialGradient>
<linearGradient id="paint17_linear_2_47" x1="540.865" y1="686.962" x2="294.338" y2="649.919" gradientUnits="userSpaceOnUse">
<stop stop-color="#4F1A28"/>
<stop offset="1" stop-color="#4F1A28" stop-opacity="0"/>
</linearGradient>
<linearGradient id="paint18_linear_2_47" x1="354.373" y1="683.981" x2="461.67" y2="627.352" gradientUnits="userSpaceOnUse">
<stop stop-color="#8A5351"/>
<stop offset="1" stop-color="#84504E" stop-opacity="0"/>
</linearGradient>
<linearGradient id="paint19_linear_2_47" x1="444.639" y1="610.953" x2="444.639" y2="720.599" gradientUnits="userSpaceOnUse">
<stop offset="0.141803" stop-color="#A00894"/>
<stop offset="1" stop-color="#D11379"/>
</linearGradient>
</defs>
</svg>
