<svg width="58" height="58" viewBox="0 0 58 58" fill="none" xmlns="http://www.w3.org/2000/svg">
<g clip-path="url(#clip0_10_70)">
<path d="M48.1717 17.0307C48.6928 15.1737 48.8363 13.2311 48.5939 11.3178C48.3514 9.40436 47.7279 7.55897 46.7602 5.89062C46.5217 5.4774 46.1785 5.13424 45.7653 4.89562C45.3521 4.657 44.8834 4.53134 44.4062 4.53125C42.2303 4.52512 40.0811 5.01103 38.1195 5.95263C36.1578 6.89424 34.4344 8.26717 33.0781 9.96875H28.5469C27.1906 8.26717 25.4672 6.89424 23.5055 5.95263C21.5439 5.01103 19.3947 4.52512 17.2188 4.53125C16.7416 4.53134 16.2729 4.657 15.8597 4.89562C15.4465 5.13424 15.1033 5.4774 14.8648 5.89062C13.8971 7.55897 13.2736 9.40436 13.0311 11.3178C12.7887 13.2311 12.9322 15.1737 13.4533 17.0307C12.3696 19.0383 11.7955 21.2812 11.7812 23.5625V25.375C11.7855 28.4178 12.8089 31.3716 14.688 33.7649C16.5672 36.1581 19.1938 37.853 22.1488 38.5791C21.2919 40.0774 20.842 41.7739 20.8438 43.5V44.4062H17.2188C16.017 44.4062 14.8644 43.9288 14.0147 43.0791C13.1649 42.2293 12.6875 41.0768 12.6875 39.875C12.6845 37.232 11.6333 34.6982 9.76441 32.8293C7.89556 30.9605 5.36171 29.9092 2.71875 29.9062C1.99769 29.9062 1.30617 30.1927 0.796303 30.7026C0.286439 31.2124 0 31.9039 0 32.625C0 33.3461 0.286439 34.0376 0.796303 34.5474C1.30617 35.0573 1.99769 35.3437 2.71875 35.3437C3.92051 35.3437 5.07305 35.8211 5.92283 36.6709C6.7726 37.5207 7.25 38.6732 7.25 39.875C7.253 42.518 8.30424 45.0518 10.1731 46.9207C12.0419 48.7895 14.5758 49.8407 17.2188 49.8437H20.8438V52.5625C20.8438 53.2836 21.1302 53.9751 21.6401 54.4849C22.1499 54.9948 22.8414 55.2812 23.5625 55.2812C24.2836 55.2812 24.9751 54.9948 25.4849 54.4849C25.9948 53.9751 26.2812 53.2836 26.2812 52.5625V43.5C26.2812 42.2982 26.7586 41.1457 27.6084 40.2959C28.4582 39.4461 29.6107 38.9687 30.8125 38.9687C32.0143 38.9687 33.1668 39.4461 34.0166 40.2959C34.8664 41.1457 35.3438 42.2982 35.3438 43.5V52.5625C35.3438 53.2836 35.6302 53.9751 36.1401 54.4849C36.6499 54.9948 37.3414 55.2812 38.0625 55.2812C38.7836 55.2812 39.4751 54.9948 39.9849 54.4849C40.4948 53.9751 40.7812 53.2836 40.7812 52.5625V43.5C40.783 41.7739 40.3331 40.0774 39.4762 38.5791C42.4312 37.853 45.0578 36.1581 46.937 33.7649C48.8161 31.3716 49.8395 28.4178 49.8438 25.375V23.5625C49.8295 21.2812 49.2554 19.0383 48.1717 17.0307ZM44.4062 25.375C44.4062 27.5382 43.5469 29.6127 42.0173 31.1423C40.4877 32.6719 38.4132 33.5312 36.25 33.5312H25.375C23.2118 33.5312 21.1373 32.6719 19.6077 31.1423C18.0781 29.6127 17.2188 27.5382 17.2188 25.375V23.5625C17.242 21.9424 17.7235 20.3619 18.6076 19.0041C18.8894 18.6392 19.0707 18.2069 19.1335 17.7502C19.1963 17.2934 19.1384 16.8282 18.9655 16.4009C18.1857 14.3855 18.1535 12.1575 18.8749 10.1205C20.0959 10.3455 21.2573 10.8197 22.2868 11.5135C23.3163 12.2074 24.1918 13.106 24.8584 14.1534C25.1042 14.5373 25.4426 14.8533 25.8425 15.0722C26.2423 15.2911 26.6908 15.406 27.1467 15.4062H34.476C34.9323 15.4064 35.3812 15.2917 35.7815 15.0727C36.1818 14.8538 36.5206 14.5376 36.7666 14.1534C37.4329 13.1058 38.3083 12.2069 39.3378 11.513C40.3674 10.8191 41.529 10.3451 42.7501 10.1205C43.4715 12.1575 43.4393 14.3855 42.6595 16.4009C42.4936 16.8314 42.44 17.2972 42.5038 17.7542C42.5676 18.2112 42.7467 18.6444 43.0242 19.0131C43.9045 20.369 44.3836 21.9461 44.4062 23.5625V25.375Z" fill="#9BB6AC"/>
</g>
<defs>
<clipPath id="clip0_10_70">
<rect width="58" height="58" fill="white"/>
</clipPath>
</defs>
</svg>
