<svg width="54" height="41" viewBox="0 0 54 41" fill="none" xmlns="http://www.w3.org/2000/svg">
<path d="M11.6038 25.254C9.14587 25.254 7.15332 23.209 7.15332 20.6865C7.15332 18.1639 9.14587 16.119 11.6038 16.119C14.0617 16.119 16.0543 18.1639 16.0543 20.6865C16.0543 23.209 14.0617 25.254 11.6038 25.254Z" fill="#783A3E"/>
<path d="M42.315 25.254C44.7729 25.254 46.7655 23.209 46.7655 20.6865C46.7655 18.1639 44.7729 16.119 42.315 16.119C39.8571 16.119 37.8645 18.1639 37.8645 20.6865C37.8645 23.209 39.8571 25.254 42.315 25.254Z" fill="#783A3E"/>
<path fill-rule="evenodd" clip-rule="evenodd" d="M18.7979 7.44734C19.497 7.44734 20.182 7.26322 20.7818 6.91043C23.4027 5.36879 27.3319 3.01879 31.0149 0.790548C34.402 -0.925891 36.0423 0.372629 36.0423 2.58161V6.20581C36.0423 6.89154 36.611 7.43822 37.3015 7.53701C39.7595 7.88864 41.9732 9.25697 43.3569 11.3309L43.835 12.0762C48.5973 12.1644 52.4302 15.9856 52.4302 20.6865C52.4302 21.958 52.1498 23.1653 51.6463 24.2516L51.7625 24.4326C57.3822 32.8506 51.6398 41 43.1422 41H11.0269C5.04259 41 0 36.7233 0 31.4476C0 28.9849 0.744237 27.1043 1.97451 24.9102L2.32557 24.3643C1.78872 23.249 1.48847 22.0022 1.48847 20.6865C1.48847 15.9382 5.39894 12.0875 10.2278 12.0747L10.662 11.3993C12.2714 8.93643 15.0452 7.44734 18.0236 7.44734H18.7979ZM8.91678 14.1135C5.78982 14.7235 3.4326 17.4345 3.4326 20.6865C3.4326 21.2513 3.50371 21.7998 3.63761 22.3238C4.38109 25.2334 7.06052 27.3878 10.252 27.3878C14.0182 27.3878 17.0714 24.3875 17.0714 20.6865C17.0714 16.9854 14.0182 13.9851 10.252 13.9851C9.79503 13.9851 9.34857 14.0293 8.91678 14.1135ZM50.3164 22.1787C50.4275 21.6988 50.4861 21.1994 50.4861 20.6865C50.4861 17.4908 48.2098 14.8175 45.1636 14.1471C44.6819 14.0411 44.181 13.9851 43.6667 13.9851C39.9005 13.9851 36.8473 16.9854 36.8473 20.6865C36.8473 24.3875 39.9005 27.3878 43.6667 27.3878C46.911 27.3878 49.6262 25.1615 50.3164 22.1787ZM19.4901 27.8776C19.418 27.2655 19.9429 26.7754 20.57 26.7754H33.3795C34.0066 26.7754 34.5315 27.2655 34.4595 27.8776C34.0304 31.524 30.8131 34.4626 26.9748 34.4626C23.1365 34.4626 19.9191 31.524 19.4901 27.8776Z" fill="#783A3E"/>
</svg>
