<svg width="1074" height="731" viewBox="0 0 1074 731" fill="none" xmlns="http://www.w3.org/2000/svg">
<ellipse cx="537" cy="537" rx="537" ry="194" fill="#6892A0"/>
<g filter="url(#filter0_i_68_11)">
<path d="M431.027 106.267C440.825 106.267 450.427 103.64 458.834 98.6083C495.57 76.6191 550.643 43.1 602.267 11.3174C649.742 -13.165 672.734 5.3564 672.734 36.8642V88.558C672.734 98.3388 680.704 106.136 690.383 107.545C724.835 112.561 755.865 132.078 775.258 161.66L893.076 348.536C971.845 468.606 891.356 584.845 772.25 584.845H322.103C238.224 584.845 167.545 523.843 167.545 448.595C167.545 413.468 177.976 386.643 195.22 355.349L316.99 162.635C339.547 127.506 378.426 106.267 420.174 106.267H431.027Z" fill="url(#paint0_radial_68_11)"/>
<path d="M431.027 106.267C440.825 106.267 450.427 103.64 458.834 98.6083C495.57 76.6191 550.643 43.1 602.267 11.3174C649.742 -13.165 672.734 5.3564 672.734 36.8642V88.558C672.734 98.3388 680.704 106.136 690.383 107.545C724.835 112.561 755.865 132.078 775.258 161.66L893.076 348.536C971.845 468.606 891.356 584.845 772.25 584.845H322.103C238.224 584.845 167.545 523.843 167.545 448.595C167.545 413.468 177.976 386.643 195.22 355.349L316.99 162.635C339.547 127.506 378.426 106.267 420.174 106.267H431.027Z" fill="url(#paint1_radial_68_11)"/>
<path d="M431.027 106.267C440.825 106.267 450.427 103.64 458.834 98.6083C495.57 76.6191 550.643 43.1 602.267 11.3174C649.742 -13.165 672.734 5.3564 672.734 36.8642V88.558C672.734 98.3388 680.704 106.136 690.383 107.545C724.835 112.561 755.865 132.078 775.258 161.66L893.076 348.536C971.845 468.606 891.356 584.845 772.25 584.845H322.103C238.224 584.845 167.545 523.843 167.545 448.595C167.545 413.468 177.976 386.643 195.22 355.349L316.99 162.635C339.547 127.506 378.426 106.267 420.174 106.267H431.027Z" fill="url(#paint2_radial_68_11)"/>
<path d="M431.027 106.267C440.825 106.267 450.427 103.64 458.834 98.6083C495.57 76.6191 550.643 43.1 602.267 11.3174C649.742 -13.165 672.734 5.3564 672.734 36.8642V88.558C672.734 98.3388 680.704 106.136 690.383 107.545C724.835 112.561 755.865 132.078 775.258 161.66L893.076 348.536C971.845 468.606 891.356 584.845 772.25 584.845H322.103C238.224 584.845 167.545 523.843 167.545 448.595C167.545 413.468 177.976 386.643 195.22 355.349L316.99 162.635C339.547 127.506 378.426 106.267 420.174 106.267H431.027Z" fill="url(#paint3_radial_68_11)"/>
<path d="M431.027 106.267C440.825 106.267 450.427 103.64 458.834 98.6083C495.57 76.6191 550.643 43.1 602.267 11.3174C649.742 -13.165 672.734 5.3564 672.734 36.8642V88.558C672.734 98.3388 680.704 106.136 690.383 107.545C724.835 112.561 755.865 132.078 775.258 161.66L893.076 348.536C971.845 468.606 891.356 584.845 772.25 584.845H322.103C238.224 584.845 167.545 523.843 167.545 448.595C167.545 413.468 177.976 386.643 195.22 355.349L316.99 162.635C339.547 127.506 378.426 106.267 420.174 106.267H431.027Z" fill="url(#paint4_radial_68_11)"/>
<path d="M431.027 106.267C440.825 106.267 450.427 103.64 458.834 98.6083C495.57 76.6191 550.643 43.1 602.267 11.3174C649.742 -13.165 672.734 5.3564 672.734 36.8642V88.558C672.734 98.3388 680.704 106.136 690.383 107.545C724.835 112.561 755.865 132.078 775.258 161.66L893.076 348.536C971.845 468.606 891.356 584.845 772.25 584.845H322.103C238.224 584.845 167.545 523.843 167.545 448.595C167.545 413.468 177.976 386.643 195.22 355.349L316.99 162.635C339.547 127.506 378.426 106.267 420.174 106.267H431.027Z" fill="url(#paint5_radial_68_11)"/>
<path d="M431.027 106.267C440.825 106.267 450.427 103.64 458.834 98.6083C495.57 76.6191 550.643 43.1 602.267 11.3174C649.742 -13.165 672.734 5.3564 672.734 36.8642V88.558C672.734 98.3388 680.704 106.136 690.383 107.545C724.835 112.561 755.865 132.078 775.258 161.66L893.076 348.536C971.845 468.606 891.356 584.845 772.25 584.845H322.103C238.224 584.845 167.545 523.843 167.545 448.595C167.545 413.468 177.976 386.643 195.22 355.349L316.99 162.635C339.547 127.506 378.426 106.267 420.174 106.267H431.027Z" fill="url(#paint6_radial_68_11)"/>
<path d="M431.027 106.267C440.825 106.267 450.427 103.64 458.834 98.6083C495.57 76.6191 550.643 43.1 602.267 11.3174C649.742 -13.165 672.734 5.3564 672.734 36.8642V88.558C672.734 98.3388 680.704 106.136 690.383 107.545C724.835 112.561 755.865 132.078 775.258 161.66L893.076 348.536C971.845 468.606 891.356 584.845 772.25 584.845H322.103C238.224 584.845 167.545 523.843 167.545 448.595C167.545 413.468 177.976 386.643 195.22 355.349L316.99 162.635C339.547 127.506 378.426 106.267 420.174 106.267H431.027Z" fill="url(#paint7_radial_68_11)"/>
</g>
<path d="M431.027 106.267C440.825 106.267 450.427 103.64 458.834 98.6083C495.57 76.6191 550.643 43.1 602.267 11.3174C649.742 -13.165 672.734 5.3564 672.734 36.8642V88.558C672.734 98.3388 680.704 106.136 690.383 107.545C724.835 112.561 755.865 132.078 775.258 161.66L893.076 348.536C971.845 468.606 891.356 584.845 772.25 584.845H322.103C238.224 584.845 167.545 523.843 167.545 448.595C167.545 413.468 177.976 386.643 195.22 355.349L316.99 162.635C339.547 127.506 378.426 106.267 420.174 106.267H431.027Z" fill="url(#paint8_radial_68_11)"/>
<g filter="url(#filter1_i_68_11)">
<circle cx="95.5844" cy="95.5844" r="95.5844" transform="matrix(-1 0 0 1 406.827 199.52)" fill="url(#paint9_radial_68_11)"/>
<circle cx="95.5844" cy="95.5844" r="95.5844" transform="matrix(-1 0 0 1 406.827 199.52)" fill="url(#paint10_radial_68_11)"/>
</g>
<ellipse cx="62.3805" cy="65.1481" rx="62.3805" ry="65.1481" transform="matrix(-1 0 0 1 392.57 229.956)" fill="url(#paint11_radial_68_11)"/>
<ellipse cx="62.3805" cy="65.1481" rx="62.3805" ry="65.1481" transform="matrix(-1 0 0 1 392.57 229.956)" fill="url(#paint12_radial_68_11)"/>
<circle cx="779.602" cy="295.104" r="95.5844" fill="url(#paint13_radial_68_11)"/>
<circle cx="779.602" cy="295.104" r="95.5844" fill="url(#paint14_radial_68_11)"/>
<ellipse cx="760.655" cy="295.104" rx="62.3805" ry="65.1481" fill="url(#paint15_radial_68_11)"/>
<ellipse cx="760.655" cy="295.104" rx="62.3805" ry="65.1481" fill="url(#paint16_radial_68_11)"/>
<g filter="url(#filter2_f_68_11)">
<path d="M455.866 381.953C447.076 381.953 439.719 388.943 440.729 397.674C446.743 449.685 491.839 491.599 545.639 491.599C599.439 491.599 644.535 449.685 650.549 397.674C651.558 388.943 644.201 381.953 635.411 381.953H455.866Z" stroke="url(#paint17_linear_68_11)" stroke-width="0.5"/>
</g>
<g filter="url(#filter3_f_68_11)">
<path d="M455.866 381.953C447.076 381.953 439.719 388.943 440.729 397.674C446.743 449.685 491.839 491.599 545.639 491.599C599.439 491.599 644.535 449.685 650.549 397.674C651.558 388.943 644.201 381.953 635.411 381.953H455.866Z" stroke="url(#paint18_linear_68_11)" stroke-width="0.5"/>
</g>
<path d="M455.866 381.953C447.076 381.953 439.719 388.943 440.729 397.674C446.743 449.685 491.839 491.599 545.639 491.599C599.439 491.599 644.535 449.685 650.549 397.674C651.558 388.943 644.201 381.953 635.411 381.953H455.866Z" fill="url(#paint19_linear_68_11)"/>
<defs>
<filter id="filter0_i_68_11" x="167.545" y="0.0414124" width="757.394" height="584.803" filterUnits="userSpaceOnUse" color-interpolation-filters="sRGB">
<feFlood flood-opacity="0" result="BackgroundImageFix"/>
<feBlend mode="normal" in="SourceGraphic" in2="BackgroundImageFix" result="shape"/>
<feColorMatrix in="SourceAlpha" type="matrix" values="0 0 0 0 0 0 0 0 0 0 0 0 0 0 0 0 0 0 127 0" result="hardAlpha"/>
<feOffset dx="0.5"/>
<feGaussianBlur stdDeviation="1"/>
<feComposite in2="hardAlpha" operator="arithmetic" k2="-1" k3="1"/>
<feColorMatrix type="matrix" values="0 0 0 0 0.313726 0 0 0 0 0.14902 0 0 0 0 0.160784 0 0 0 1 0"/>
<feBlend mode="normal" in2="shape" result="effect1_innerShadow_68_11"/>
</filter>
<filter id="filter1_i_68_11" x="215.658" y="199.52" width="191.319" height="191.169" filterUnits="userSpaceOnUse" color-interpolation-filters="sRGB">
<feFlood flood-opacity="0" result="BackgroundImageFix"/>
<feBlend mode="normal" in="SourceGraphic" in2="BackgroundImageFix" result="shape"/>
<feColorMatrix in="SourceAlpha" type="matrix" values="0 0 0 0 0 0 0 0 0 0 0 0 0 0 0 0 0 0 127 0" result="hardAlpha"/>
<feOffset dx="0.15"/>
<feGaussianBlur stdDeviation="0.25"/>
<feComposite in2="hardAlpha" operator="arithmetic" k2="-1" k3="1"/>
<feColorMatrix type="matrix" values="0 0 0 0 0.686275 0 0 0 0 0.67451 0 0 0 0 0.698039 0 0 0 1 0"/>
<feBlend mode="normal" in2="shape" result="effect1_innerShadow_68_11"/>
</filter>
<filter id="filter2_f_68_11" x="439.886" y="381.203" width="211.506" height="111.146" filterUnits="userSpaceOnUse" color-interpolation-filters="sRGB">
<feFlood flood-opacity="0" result="BackgroundImageFix"/>
<feBlend mode="normal" in="SourceGraphic" in2="BackgroundImageFix" result="shape"/>
<feGaussianBlur stdDeviation="0.25" result="effect1_foregroundBlur_68_11"/>
</filter>
<filter id="filter3_f_68_11" x="440.136" y="381.453" width="211.006" height="110.646" filterUnits="userSpaceOnUse" color-interpolation-filters="sRGB">
<feFlood flood-opacity="0" result="BackgroundImageFix"/>
<feBlend mode="normal" in="SourceGraphic" in2="BackgroundImageFix" result="shape"/>
<feGaussianBlur stdDeviation="0.125" result="effect1_foregroundBlur_68_11"/>
</filter>
<radialGradient id="paint0_radial_68_11" cx="0" cy="0" r="1" gradientUnits="userSpaceOnUse" gradientTransform="translate(724.466 198.235) rotate(129.331) scale(499.817 515.795)">
<stop stop-color="#A95D4B"/>
<stop offset="0.808038" stop-color="#693039"/>
</radialGradient>
<radialGradient id="paint1_radial_68_11" cx="0" cy="0" r="1" gradientUnits="userSpaceOnUse" gradientTransform="translate(761.935 410.274) rotate(180) scale(210.336 73.2344)">
<stop stop-color="#875050"/>
<stop offset="1" stop-color="#875050" stop-opacity="0"/>
</radialGradient>
<radialGradient id="paint2_radial_68_11" cx="0" cy="0" r="1" gradientUnits="userSpaceOnUse" gradientTransform="translate(436.638 584.845) scale(471.766 182.234)">
<stop stop-color="#6D2752"/>
<stop offset="1" stop-color="#6D2752" stop-opacity="0"/>
</radialGradient>
<radialGradient id="paint3_radial_68_11" cx="0" cy="0" r="1" gradientUnits="userSpaceOnUse" gradientTransform="translate(283.414 341.881) rotate(153.435) scale(111.946 75.4479)">
<stop offset="0.307426" stop-color="#502928"/>
<stop offset="1" stop-color="#502928" stop-opacity="0"/>
</radialGradient>
<radialGradient id="paint4_radial_68_11" cx="0" cy="0" r="1" gradientUnits="userSpaceOnUse" gradientTransform="translate(674.091 0.0414308) rotate(121.001) scale(210.025 81.3831)">
<stop offset="0.182311" stop-color="#BB6C5A"/>
<stop offset="1" stop-color="#8D4A43" stop-opacity="0"/>
</radialGradient>
<radialGradient id="paint5_radial_68_11" cx="0" cy="0" r="1" gradientUnits="userSpaceOnUse" gradientTransform="translate(582.009 107.653) scale(125.16 12.516)">
<stop stop-color="#7B4638"/>
<stop offset="1" stop-color="#8D4A43" stop-opacity="0"/>
</radialGradient>
<radialGradient id="paint6_radial_68_11" cx="0" cy="0" r="1" gradientUnits="userSpaceOnUse" gradientTransform="translate(438.97 104.077) scale(96.5519 11.622)">
<stop stop-color="#915E52"/>
<stop offset="1" stop-color="#915E52" stop-opacity="0"/>
</radialGradient>
<radialGradient id="paint7_radial_68_11" cx="0" cy="0" r="1" gradientUnits="userSpaceOnUse" gradientTransform="translate(738.943 337.892) rotate(-137.268) scale(121.729 92.8782)">
<stop offset="0.492825" stop-color="#572725"/>
<stop offset="1" stop-color="#6F3735" stop-opacity="0"/>
</radialGradient>
<radialGradient id="paint8_radial_68_11" cx="0" cy="0" r="1" gradientUnits="userSpaceOnUse" gradientTransform="translate(814.732 125.001) rotate(147.619) scale(165.37 203.853)">
<stop stop-color="#AA6452"/>
<stop offset="1" stop-color="#AA6452" stop-opacity="0"/>
</radialGradient>
<radialGradient id="paint9_radial_68_11" cx="0" cy="0" r="1" gradientUnits="userSpaceOnUse" gradientTransform="translate(45.1262 48.1062) rotate(47.2395) scale(107.866 118.892)">
<stop offset="0.296682" stop-color="white"/>
<stop offset="1" stop-color="#B9B1BE"/>
</radialGradient>
<radialGradient id="paint10_radial_68_11" cx="0" cy="0" r="1" gradientUnits="userSpaceOnUse" gradientTransform="translate(90.259 126.45) rotate(62.4801) scale(114.265 123.787)">
<stop offset="0.239583" stop-color="#C39EE2"/>
<stop offset="1" stop-color="#C39EE2" stop-opacity="0"/>
</radialGradient>
<radialGradient id="paint11_radial_68_11" cx="0" cy="0" r="1" gradientUnits="userSpaceOnUse" gradientTransform="translate(69.1894 105.381) rotate(-90) scale(96.2265 84.3047)">
<stop stop-color="#332169"/>
<stop offset="1" stop-color="#232854"/>
</radialGradient>
<radialGradient id="paint12_radial_68_11" cx="0" cy="0" r="1" gradientUnits="userSpaceOnUse" gradientTransform="translate(23.2051 29.5918) rotate(-142.431) scale(69.8333 39.9701)">
<stop offset="0.255762" stop-color="#707289"/>
<stop offset="1" stop-color="#707289" stop-opacity="0"/>
</radialGradient>
<radialGradient id="paint13_radial_68_11" cx="0" cy="0" r="1" gradientUnits="userSpaceOnUse" gradientTransform="translate(818.138 268.915) rotate(139.49) scale(115.364 127.156)">
<stop offset="0.296682" stop-color="white"/>
<stop offset="1" stop-color="#B9B1BE"/>
</radialGradient>
<radialGradient id="paint14_radial_68_11" cx="0" cy="0" r="1" gradientUnits="userSpaceOnUse" gradientTransform="translate(748.31 345.556) rotate(90) scale(81.75 88.5625)">
<stop offset="0.239583" stop-color="#C39EE2"/>
<stop offset="1" stop-color="#C39EE2" stop-opacity="0"/>
</radialGradient>
<radialGradient id="paint15_radial_68_11" cx="0" cy="0" r="1" gradientUnits="userSpaceOnUse" gradientTransform="translate(795.146 337.892) rotate(-116.012) scale(78.6466 111.948)">
<stop stop-color="#362469"/>
<stop offset="1" stop-color="#23274E"/>
</radialGradient>
<radialGradient id="paint16_radial_68_11" cx="0" cy="0" r="1" gradientUnits="userSpaceOnUse" gradientTransform="translate(820.267 277.005) rotate(154.217) scale(41.6112 41.6557)">
<stop offset="0.116655" stop-color="#6E7087"/>
<stop offset="1" stop-color="#6E7087" stop-opacity="0"/>
</radialGradient>
<linearGradient id="paint17_linear_68_11" x1="641.865" y1="457.962" x2="395.338" y2="420.919" gradientUnits="userSpaceOnUse">
<stop stop-color="#4F1A28"/>
<stop offset="1" stop-color="#4F1A28" stop-opacity="0"/>
</linearGradient>
<linearGradient id="paint18_linear_68_11" x1="455.373" y1="454.981" x2="562.67" y2="398.352" gradientUnits="userSpaceOnUse">
<stop stop-color="#8A5351"/>
<stop offset="1" stop-color="#84504E" stop-opacity="0"/>
</linearGradient>
<linearGradient id="paint19_linear_68_11" x1="545.639" y1="381.953" x2="545.639" y2="491.599" gradientUnits="userSpaceOnUse">
<stop offset="0.141803" stop-color="#A00894"/>
<stop offset="1" stop-color="#D11379"/>
</linearGradient>
</defs>
</svg>
